<svg width="114.025391" height="123.896973" viewBox="0 0 114.025 123.897" fill="none" xmlns="http://www.w3.org/2000/svg" xmlns:xlink="http://www.w3.org/1999/xlink">
	<desc>
			Created with Pixso.
	</desc>
	<defs>
		<linearGradient x1="23.426380" y1="50.537491" x2="136.974686" y2="109.312592" id="paint_linear_53_2527_0" gradientUnits="userSpaceOnUse">
			<stop stop-color="#FD749B"/>
			<stop offset="1.000000" stop-color="#281AC8"/>
		</linearGradient>
		<linearGradient x1="58.771660" y1="50.222397" x2="83.476570" y2="-16.721262" id="paint_linear_53_2528_0" gradientUnits="userSpaceOnUse">
			<stop stop-color="#BB6DF3"/>
			<stop offset="1.000000" stop-color="#7A00F4"/>
		</linearGradient>
		<linearGradient x1="106.499954" y1="-10.000000" x2="17.000000" y2="99.000023" id="paint_linear_53_2529_0" gradientUnits="userSpaceOnUse">
			<stop stop-color="#907EFF"/>
			<stop offset="1.000000" stop-color="#BB6DF3"/>
		</linearGradient>
		<linearGradient x1="49.339531" y1="-5.150025" x2="36.656570" y2="154.331055" id="paint_linear_53_2530_0" gradientUnits="userSpaceOnUse">
			<stop stop-color="#FD749B"/>
			<stop offset="1.000000" stop-color="#281AC8"/>
		</linearGradient>
		<clipPath id="clip53_2531">
			<rect id="crown 1" rx="0.000000" width="48.000000" height="48.000000" transform="translate(20.500000 28.503906)" fill="white" fill-opacity="0"/>
		</clipPath>
	</defs>
	<g opacity="0.253397" style="mix-blend-mode:normal">
		<path id="Path 4" d="M20.36 88.61C20.36 88.61 20.93 85.46 23.18 92.88C25.42 100.3 50.82 116.54 59.32 103.38C67.83 90.23 79.84 104.99 88.15 101.04C96.45 97.1 97.77 91.89 91.58 79.34C85.39 66.79 100.61 51.49 85.44 41.66C70.26 31.83 82.01 34.24 82.01 34.24L81.93 74.39L61.62 92.8L20.36 88.61Z" fill="url(#paint_linear_53_2527_0)" fill-opacity="1.000000" fill-rule="evenodd"/>
		<path id="Path 4" d="M23.18 92.88C25.42 100.3 50.82 116.54 59.32 103.38C67.83 90.23 79.84 104.99 88.15 101.04C96.45 97.1 97.77 91.89 91.58 79.34C85.39 66.79 100.61 51.49 85.44 41.66C70.26 31.83 82.01 34.24 82.01 34.24L81.93 74.39L61.62 92.8L20.36 88.61C20.36 88.61 20.93 85.46 23.18 92.88Z" stroke="#979797" stroke-opacity="0" stroke-width="0.000000"/>
	</g>
	<g opacity="0.518059" style="mix-blend-mode:normal">
		<path id="Path 2 Copy" d="M80.59 49.54C80.59 49.54 78.82 49.44 82.73 47.69C86.64 45.94 93.81 30.74 86.04 26.92C78.28 23.09 85.54 15.42 82.82 11.08C80.1 6.74 77.16 6.37 70.72 10.65C64.27 14.94 51.82 3.49 47.47 12.58C43.11 21.67 50.51 10.63 50.51 10.63L68.66 16.34L80.1 26.36L80.59 49.54Z" fill="url(#paint_linear_53_2528_0)" fill-opacity="1.000000" fill-rule="evenodd"/>
		<path id="Path 2 Copy" d="M82.73 47.69C86.64 45.94 93.81 30.74 86.04 26.92C78.28 23.09 85.54 15.42 82.82 11.08C80.1 6.74 77.16 6.37 70.72 10.65C64.27 14.94 51.82 3.49 47.47 12.58C43.11 21.67 50.51 10.63 50.51 10.63L68.66 16.34L80.1 26.36L80.59 49.54C80.59 49.54 78.82 49.44 82.73 47.69Z" stroke="#979797" stroke-opacity="0" stroke-width="0.000000"/>
	</g>
	<circle id="Ellipse 7" cx="44.853516" cy="53.824707" r="39.854057" stroke="url(#paint_linear_53_2529_0)" stroke-opacity="1.000000" stroke-width="10.000000"/>
	<path id="Vector" d="M47.15 62.12C47.15 64.19 48.83 65.87 50.9 65.87L55.31 65.87C57.38 65.87 59.06 64.19 59.06 62.12L59.06 57.71C59.06 55.65 57.38 53.96 55.31 53.96L50.9 53.96C48.83 53.96 47.15 55.65 47.15 57.71L47.15 62.12ZM50.9 57.71L55.31 57.71L55.31 62.12C55.31 62.12 55.31 62.12 55.31 62.12L50.9 62.12L50.9 57.71Z" fill="#B370F5" fill-opacity="1.000000" fill-rule="nonzero"/>
	<path id="Vector" d="M59.06 47.68C59.06 48.72 58.22 49.56 57.18 49.56C56.15 49.56 55.31 48.72 55.31 47.68C55.31 46.65 56.15 45.81 57.18 45.81C58.22 45.81 59.06 46.65 59.06 47.68Z" fill="#B370F5" fill-opacity="1.000000" fill-rule="evenodd"/>
	<path id="Vector" d="M50.9 47.68C50.9 48.72 50.06 49.56 49.03 49.56C47.99 49.56 47.15 48.72 47.15 47.68C47.15 46.65 47.99 45.81 49.03 45.81C50.06 45.81 50.9 46.65 50.9 47.68Z" fill="#B370F5" fill-opacity="1.000000" fill-rule="evenodd"/>
	<path id="Vector" d="M67.12 61C68.16 61 69 60.16 69 59.12L69 39.25C69 35.11 65.63 31.75 61.5 31.75L59.06 31.75L59.06 29.87C59.06 28.84 58.22 28 57.18 28C56.15 28 55.31 28.84 55.31 29.87L55.31 31.75L46.78 31.75L46.78 29.87C46.78 28.84 45.94 28 44.9 28C43.87 28 43.03 28.84 43.03 29.87L43.03 31.75L34.59 31.75L34.59 29.87C34.59 28.84 33.75 28 32.71 28C31.68 28 30.84 28.84 30.84 29.87L30.84 31.75L28.5 31.75C24.36 31.75 21 35.11 21 39.25L21 68.5C21 72.63 24.36 76 28.5 76L61.5 76C65.63 76 69 72.63 69 68.5C69 67.46 68.16 66.62 67.12 66.62C66.08 66.62 65.25 67.46 65.25 68.5C65.25 70.56 63.56 72.25 61.5 72.25L28.5 72.25C26.43 72.25 24.75 70.56 24.75 68.5L24.75 39.25C24.75 37.18 26.43 35.5 28.5 35.5L30.84 35.5L30.84 37.37C30.84 38.41 31.68 39.25 32.71 39.25C33.75 39.25 34.59 38.41 34.59 37.37L34.59 35.5L43.03 35.5L43.03 37.37C43.03 38.41 43.87 39.25 44.9 39.25C45.94 39.25 46.78 38.41 46.78 37.37L46.78 35.5L55.31 35.5L55.31 37.37C55.31 38.41 56.15 39.25 57.18 39.25C58.22 39.25 59.06 38.41 59.06 37.37L59.06 35.5L61.5 35.5C63.56 35.5 65.25 37.18 65.25 39.25L65.25 59.12C65.25 60.16 66.08 61 67.12 61Z" fill="#B370F5" fill-opacity="1.000000" fill-rule="nonzero"/>
	<path id="Vector" d="M34.59 64C34.59 65.03 33.75 65.87 32.71 65.87C31.68 65.87 30.84 65.03 30.84 64C30.84 62.96 31.68 62.12 32.71 62.12C33.75 62.12 34.59 62.96 34.59 64Z" fill="#B370F5" fill-opacity="1.000000" fill-rule="evenodd"/>
	<path id="Vector" d="M34.59 47.68C34.59 48.72 33.75 49.56 32.71 49.56C31.68 49.56 30.84 48.72 30.84 47.68C30.84 46.65 31.68 45.81 32.71 45.81C33.75 45.81 34.59 46.65 34.59 47.68Z" fill="#B370F5" fill-opacity="1.000000" fill-rule="evenodd"/>
	<path id="Vector" d="M34.59 55.84C34.59 56.88 33.75 57.71 32.71 57.71C31.68 57.71 30.84 56.88 30.84 55.84C30.84 54.8 31.68 53.96 32.71 53.96C33.75 53.96 34.59 54.8 34.59 55.84Z" fill="#B370F5" fill-opacity="1.000000" fill-rule="evenodd"/>
	<path id="Vector" d="M42.75 55.84C42.75 56.88 41.91 57.71 40.87 57.71C39.83 57.71 39 56.88 39 55.84C39 54.8 39.83 53.96 40.87 53.96C41.91 53.96 42.75 54.8 42.75 55.84Z" fill="#B370F5" fill-opacity="1.000000" fill-rule="evenodd"/>
	<path id="Vector" d="M42.75 47.68C42.75 48.72 41.91 49.56 40.87 49.56C39.83 49.56 39 48.72 39 47.68C39 46.65 39.83 45.81 40.87 45.81C41.91 45.81 42.75 46.65 42.75 47.68Z" fill="#B370F5" fill-opacity="1.000000" fill-rule="evenodd"/>
	<path id="Vector" d="M42.75 64C42.75 65.03 41.91 65.87 40.87 65.87C39.83 65.87 39 65.03 39 64C39 62.96 39.83 62.12 40.87 62.12C41.91 62.12 42.75 62.96 42.75 64Z" fill="#B370F5" fill-opacity="1.000000" fill-rule="evenodd"/>
</svg>
