<svg width="40.265625" height="42.000000" viewBox="0 0 40.2656 42" fill="none" xmlns="http://www.w3.org/2000/svg" xmlns:xlink="http://www.w3.org/1999/xlink">
	<desc>
			Created with Pixso.
	</desc>
	<defs/>
	<path id="Vector" d="M39.98 18.51C39.84 17.65 39.04 17.07 38.19 17.21C37.33 17.34 36.75 18.15 36.89 19C36.89 19.01 36.89 19.02 36.89 19.03C38.49 28.41 32.18 37.3 22.8 38.89C13.42 40.49 4.52 34.18 2.93 24.8C1.34 15.42 7.65 6.52 17.03 4.93C22.8 3.95 28.67 5.97 32.62 10.28L25.69 12.59C24.87 12.86 24.42 13.75 24.7 14.57C24.7 14.57 24.7 14.57 24.7 14.57C24.97 15.39 25.85 15.83 26.67 15.56C26.67 15.56 26.67 15.56 26.67 15.56L36.06 12.43C36.7 12.22 37.13 11.62 37.13 10.95L37.13 1.56C37.13 0.7 36.43 0 35.57 0C34.7 0 34 0.7 34 1.56L34 7.27C25.95 -0.39 13.2 -0.07 5.54 7.99C-2.12 16.04 -1.8 28.79 6.25 36.45C14.31 44.11 27.05 43.79 34.72 35.74C39.09 31.14 41.04 24.76 39.98 18.51Z" fill="#ADADAD" fill-opacity="1.000000" fill-rule="nonzero"/>
</svg>
