<svg width="114.025391" height="123.896973" viewBox="0 0 114.025 123.897" fill="none" xmlns="http://www.w3.org/2000/svg" xmlns:xlink="http://www.w3.org/1999/xlink">
	<desc>
			Created with Pixso.
	</desc>
	<defs>
		<linearGradient x1="23.426380" y1="50.537491" x2="136.974686" y2="109.312592" id="paint_linear_53_2363_0" gradientUnits="userSpaceOnUse">
			<stop stop-color="#FD749B"/>
			<stop offset="1.000000" stop-color="#281AC8"/>
		</linearGradient>
		<linearGradient x1="58.771660" y1="50.222397" x2="83.476570" y2="-16.721262" id="paint_linear_53_2364_0" gradientUnits="userSpaceOnUse">
			<stop stop-color="#BB6DF3"/>
			<stop offset="1.000000" stop-color="#7A00F4"/>
		</linearGradient>
		<linearGradient x1="106.499954" y1="-10.000000" x2="17.000000" y2="99.000023" id="paint_linear_53_2366_0" gradientUnits="userSpaceOnUse">
			<stop stop-color="#907EFF"/>
			<stop offset="1.000000" stop-color="#BB6DF3"/>
		</linearGradient>
		<linearGradient x1="49.339531" y1="-5.150025" x2="36.656570" y2="154.331055" id="paint_linear_53_2367_0" gradientUnits="userSpaceOnUse">
			<stop stop-color="#FD749B"/>
			<stop offset="1.000000" stop-color="#281AC8"/>
		</linearGradient>
		<clipPath id="clip53_2434">
			<rect id="crown 1" rx="0.000000" width="48.000000" height="48.000000" transform="translate(20.500000 28.503906)" fill="white" fill-opacity="0"/>
		</clipPath>
	</defs>
	<g opacity="0.253397" style="mix-blend-mode:normal">
		<path id="Path 4" d="M20.36 88.61C20.36 88.61 20.93 85.46 23.18 92.88C25.42 100.3 50.82 116.54 59.32 103.38C67.83 90.23 79.84 104.99 88.15 101.04C96.45 97.1 97.77 91.89 91.58 79.34C85.39 66.79 100.61 51.49 85.44 41.66C70.26 31.83 82.01 34.24 82.01 34.24L81.93 74.39L61.62 92.8L20.36 88.61Z" fill="url(#paint_linear_53_2363_0)" fill-opacity="1.000000" fill-rule="evenodd"/>
		<path id="Path 4" d="M23.18 92.88C25.42 100.3 50.82 116.54 59.32 103.38C67.83 90.23 79.84 104.99 88.15 101.04C96.45 97.1 97.77 91.89 91.58 79.34C85.39 66.79 100.61 51.49 85.44 41.66C70.26 31.83 82.01 34.24 82.01 34.24L81.93 74.39L61.62 92.8L20.36 88.61C20.36 88.61 20.93 85.46 23.18 92.88Z" stroke="#979797" stroke-opacity="0" stroke-width="0.000000"/>
	</g>
	<g opacity="0.518059" style="mix-blend-mode:normal">
		<path id="Path 2 Copy" d="M80.59 49.54C80.59 49.54 78.82 49.44 82.73 47.69C86.64 45.94 93.81 30.74 86.04 26.92C78.28 23.09 85.54 15.42 82.82 11.08C80.1 6.74 77.16 6.37 70.72 10.65C64.27 14.94 51.82 3.49 47.47 12.58C43.11 21.67 50.51 10.63 50.51 10.63L68.66 16.34L80.1 26.36L80.59 49.54Z" fill="url(#paint_linear_53_2364_0)" fill-opacity="1.000000" fill-rule="evenodd"/>
		<path id="Path 2 Copy" d="M82.73 47.69C86.64 45.94 93.81 30.74 86.04 26.92C78.28 23.09 85.54 15.42 82.82 11.08C80.1 6.74 77.16 6.37 70.72 10.65C64.27 14.94 51.82 3.49 47.47 12.58C43.11 21.67 50.51 10.63 50.51 10.63L68.66 16.34L80.1 26.36L80.59 49.54C80.59 49.54 78.82 49.44 82.73 47.69Z" stroke="#979797" stroke-opacity="0" stroke-width="0.000000"/>
	</g>
	<circle id="Ellipse 7" cx="44.853516" cy="53.824707" r="39.854057" stroke="url(#paint_linear_53_2366_0)" stroke-opacity="1.000000" stroke-width="10.000000"/>
	<rect id="crown 1" rx="0.000000" width="48.000000" height="48.000000" transform="translate(20.500000 28.503906)" fill="#FFFFFF" fill-opacity="0"/>
	<g clip-path="url(#clip53_2434)">
		<path id="Vector" d="M57.51 66.2L56.08 66.2L32.77 66.2L31.33 66.2L29.9 66.2L29.9 70.01L58.95 70.01L58.95 66.2L57.51 66.2Z" fill="#7A00F4" fill-opacity="1.000000" fill-rule="nonzero"/>
		<path id="Vector" d="M33.28 42.57L31.28 47.44L32.57 48.07L33.86 48.71L35.44 49.48L36.61 47.81L37.44 46.63L38.26 45.45L33.28 42.57Z" fill="#7A00F4" fill-opacity="1.000000" fill-rule="nonzero"/>
		<path id="Vector" d="M55.71 42.57L50.63 45.51L51.46 46.69L52.28 47.87L53.42 49.48L55.1 48.65L56.39 48.02L57.68 47.38L55.71 42.57Z" fill="#7A00F4" fill-opacity="1.000000" fill-rule="nonzero"/>
		<path id="Vector" d="M64.95 42.23C62.88 42.23 61.16 43.79 60.93 45.79C60.91 45.95 60.9 46.11 60.9 46.28C60.9 46.64 60.95 47 61.04 47.33C61.17 47.81 61.38 48.24 61.66 48.63L58.78 50.05L57.49 50.68L57.33 50.76L57.32 50.76L56.19 51.32L52.48 53.15L49.79 49.31L49.07 48.28L49.07 48.28L48.96 48.13L48.14 46.95L45.36 42.98C45.85 42.87 46.3 42.67 46.7 42.4C47.11 42.12 47.46 41.78 47.74 41.38C48.21 40.72 48.49 39.91 48.49 39.04C48.49 36.81 46.68 34.99 44.44 34.99C42.21 34.99 40.4 36.81 40.4 39.04C40.4 39.9 40.67 40.7 41.13 41.36C41.41 41.76 41.76 42.11 42.16 42.38C42.57 42.66 43.02 42.86 43.5 42.98L40.76 46.89L39.93 48.07L39.75 48.33L39.1 49.26L36.38 53.15L32.77 51.37L31.58 50.79L31.48 50.74L30.19 50.1L27.06 48.56C27.38 48.2 27.64 47.79 27.82 47.33C27.99 46.88 28.09 46.38 28.09 45.87L28.09 45.86C28.09 43.63 26.28 41.81 24.04 41.81C21.81 41.81 20 43.63 20 45.86C20 47.91 21.52 49.61 23.5 49.87C23.68 49.9 23.86 49.91 24.04 49.91C24.37 49.91 24.69 49.87 24.99 49.79C25.47 49.68 25.92 49.48 26.31 49.21L30.82 61.89L31.33 63.33L57.53 63.33L58.04 61.89L62.46 49.46C62.84 49.76 63.27 49.99 63.74 50.14C64.12 50.26 64.53 50.32 64.95 50.32C65.03 50.32 65.12 50.32 65.2 50.32C67.32 50.18 69 48.42 69 46.28C69 44.04 67.18 42.23 64.95 42.23Z" fill="#A078FA" fill-opacity="1.000000" fill-rule="nonzero"/>
	</g>
</svg>
