<svg width="114.025391" height="123.896973" viewBox="0 0 114.025 123.897" fill="none" xmlns="http://www.w3.org/2000/svg" xmlns:xlink="http://www.w3.org/1999/xlink">
	<desc>
			Created with Pixso.
	</desc>
	<defs>
		<linearGradient x1="23.426380" y1="50.537491" x2="136.974686" y2="109.312592" id="paint_linear_53_2549_0" gradientUnits="userSpaceOnUse">
			<stop stop-color="#FD749B"/>
			<stop offset="1.000000" stop-color="#281AC8"/>
		</linearGradient>
		<linearGradient x1="58.771660" y1="50.222397" x2="83.476570" y2="-16.721262" id="paint_linear_53_2550_0" gradientUnits="userSpaceOnUse">
			<stop stop-color="#BB6DF3"/>
			<stop offset="1.000000" stop-color="#7A00F4"/>
		</linearGradient>
		<linearGradient x1="106.499954" y1="-10.000000" x2="17.000000" y2="99.000023" id="paint_linear_53_2551_0" gradientUnits="userSpaceOnUse">
			<stop stop-color="#907EFF"/>
			<stop offset="1.000000" stop-color="#BB6DF3"/>
		</linearGradient>
		<linearGradient x1="49.339531" y1="-5.150025" x2="36.656570" y2="154.331055" id="paint_linear_53_2552_0" gradientUnits="userSpaceOnUse">
			<stop stop-color="#FD749B"/>
			<stop offset="1.000000" stop-color="#281AC8"/>
		</linearGradient>
		<clipPath id="clip53_2553">
			<rect id="crown 1" rx="0.000000" width="48.000000" height="48.000000" transform="translate(20.500000 28.503906)" fill="white" fill-opacity="0"/>
		</clipPath>
		<clipPath id="clip53_2595">
			<rect id="storage" rx="0.000000" width="43.000000" height="43.000000" transform="translate(23.500000 31.500732)" fill="white" fill-opacity="0"/>
		</clipPath>
	</defs>
	<g opacity="0.253397" style="mix-blend-mode:normal">
		<path id="Path 4" d="M20.36 88.61C20.36 88.61 20.93 85.46 23.18 92.88C25.42 100.3 50.82 116.54 59.32 103.38C67.83 90.23 79.84 104.99 88.15 101.04C96.45 97.1 97.77 91.89 91.58 79.34C85.39 66.79 100.61 51.49 85.44 41.66C70.26 31.83 82.01 34.24 82.01 34.24L81.93 74.39L61.62 92.8L20.36 88.61Z" fill="url(#paint_linear_53_2549_0)" fill-opacity="1.000000" fill-rule="evenodd"/>
		<path id="Path 4" d="M23.18 92.88C25.42 100.3 50.82 116.54 59.32 103.38C67.83 90.23 79.84 104.99 88.15 101.04C96.45 97.1 97.77 91.89 91.58 79.34C85.39 66.79 100.61 51.49 85.44 41.66C70.26 31.83 82.01 34.24 82.01 34.24L81.93 74.39L61.62 92.8L20.36 88.61C20.36 88.61 20.93 85.46 23.18 92.88Z" stroke="#979797" stroke-opacity="0" stroke-width="0.000000"/>
	</g>
	<g opacity="0.518059" style="mix-blend-mode:normal">
		<path id="Path 2 Copy" d="M80.59 49.54C80.59 49.54 78.82 49.44 82.73 47.69C86.64 45.94 93.81 30.74 86.04 26.92C78.28 23.09 85.54 15.42 82.82 11.08C80.1 6.74 77.16 6.37 70.72 10.65C64.27 14.94 51.82 3.49 47.47 12.58C43.11 21.67 50.51 10.63 50.51 10.63L68.66 16.34L80.1 26.36L80.59 49.54Z" fill="url(#paint_linear_53_2550_0)" fill-opacity="1.000000" fill-rule="evenodd"/>
		<path id="Path 2 Copy" d="M82.73 47.69C86.64 45.94 93.81 30.74 86.04 26.92C78.28 23.09 85.54 15.42 82.82 11.08C80.1 6.74 77.16 6.37 70.72 10.65C64.27 14.94 51.82 3.49 47.47 12.58C43.11 21.67 50.51 10.63 50.51 10.63L68.66 16.34L80.1 26.36L80.59 49.54C80.59 49.54 78.82 49.44 82.73 47.69Z" stroke="#979797" stroke-opacity="0" stroke-width="0.000000"/>
	</g>
	<circle id="Ellipse 7" cx="44.853516" cy="53.824707" r="39.854057" stroke="url(#paint_linear_53_2551_0)" stroke-opacity="1.000000" stroke-width="10.000000"/>
	<rect id="storage" rx="0.000000" width="43.000000" height="43.000000" transform="translate(23.500000 31.500732)" fill="#FFFFFF" fill-opacity="0"/>
	<g clip-path="url(#clip53_2595)">
		<path id="Vector" d="M67 45.18C67 44.66 66.9 44.16 66.7 43.69C66.7 43.69 66.7 43.69 66.7 43.69L62.4 33.38C61.8 31.93 60.4 31 58.83 31L31.16 31C29.59 31 28.19 31.93 27.59 33.38L23.29 43.69C23.09 44.16 23 44.66 23 45.18L23 50.5C23 51.49 23.37 52.4 23.98 53.08C23.37 53.77 23 54.67 23 55.66L23 60.82C23 61.81 23.37 62.71 23.98 63.39C23.37 64.08 23 64.98 23 65.97L23 71.13C23 73.26 24.73 75 26.86 75L63.13 75C65.26 75 67 73.26 67 71.13L67 65.97C67 64.98 66.62 64.08 66.01 63.39C66.62 62.71 67 61.81 67 60.82L67 55.66C67 54.67 66.62 53.77 66.01 53.08C66.62 52.4 67 51.49 67 50.5L67 45.18ZM29.97 34.37C30.17 33.89 30.64 33.57 31.16 33.57L58.83 33.57C59.35 33.57 59.82 33.89 60.02 34.37L62.91 41.31L27.08 41.31L29.97 34.37ZM64.42 71.13C64.42 71.84 63.84 72.42 63.13 72.42L26.86 72.42C26.15 72.42 25.57 71.84 25.57 71.13L25.57 65.97C25.57 65.26 26.15 64.68 26.86 64.68L63.13 64.68C63.84 64.68 64.42 65.26 64.42 65.97L64.42 71.13ZM64.42 60.82C64.42 61.53 63.84 62.11 63.13 62.11L26.86 62.11C26.15 62.11 25.57 61.53 25.57 60.82L25.57 55.66C25.57 54.95 26.15 54.37 26.86 54.37L63.13 54.37C63.84 54.37 64.42 54.95 64.42 55.66L64.42 60.82ZM64.42 50.5C64.42 51.21 63.84 51.79 63.13 51.79L26.86 51.79C26.15 51.79 25.57 51.21 25.57 50.5L25.57 45.18C25.57 44.46 26.15 43.89 26.86 43.89L63.13 43.89C63.84 43.89 64.42 44.46 64.42 45.18L64.42 50.5Z" fill="#B370F5" fill-opacity="1.000000" fill-rule="nonzero"/>
		<path id="Vector" d="M60.55 67.26L37.17 67.26C36.46 67.26 35.89 67.84 35.89 68.55C35.89 69.26 36.46 69.84 37.17 69.84L60.55 69.84C61.26 69.84 61.84 69.26 61.84 68.55C61.84 67.84 61.26 67.26 60.55 67.26Z" fill="#B370F5" fill-opacity="1.000000" fill-rule="nonzero"/>
		<path id="Vector" d="M60.55 46.46L37.17 46.46C36.46 46.46 35.89 47.04 35.89 47.75C35.89 48.47 36.46 49.04 37.17 49.04L60.55 49.04C61.26 49.04 61.84 48.47 61.84 47.75C61.84 47.04 61.26 46.46 60.55 46.46Z" fill="#B370F5" fill-opacity="1.000000" fill-rule="nonzero"/>
		<path id="Vector" d="M29.44 46.46C28.73 46.46 28.15 47.04 28.15 47.75C28.15 48.47 28.73 49.21 29.44 49.21C30.15 49.21 30.73 48.47 30.73 47.75C30.73 47.04 30.15 46.46 29.44 46.46Z" fill="#B370F5" fill-opacity="1.000000" fill-rule="nonzero"/>
		<path id="Vector" d="M60.55 56.95L37.17 56.95C36.46 56.95 35.89 57.53 35.89 58.24C35.89 58.95 36.46 59.53 37.17 59.53L60.55 59.53C61.26 59.53 61.84 58.95 61.84 58.24C61.84 57.53 61.26 56.95 60.55 56.95Z" fill="#B370F5" fill-opacity="1.000000" fill-rule="nonzero"/>
		<path id="Vector" d="M30.73 58.24C30.73 58.95 30.15 59.53 29.44 59.53C28.73 59.53 28.15 58.95 28.15 58.24C28.15 57.53 28.73 56.95 29.44 56.95C30.15 56.95 30.73 57.53 30.73 58.24Z" fill="#B370F5" fill-opacity="1.000000" fill-rule="evenodd"/>
		<path id="Vector" d="M30.73 68.55C30.73 69.26 30.15 69.84 29.44 69.84C28.73 69.84 28.15 69.26 28.15 68.55C28.15 67.84 28.73 67.26 29.44 67.26C30.15 67.26 30.73 67.84 30.73 68.55Z" fill="#B370F5" fill-opacity="1.000000" fill-rule="evenodd"/>
	</g>
</svg>
