<svg width="92.998047" height="90.011963" viewBox="0 0 92.998 90.012" fill="none" xmlns="http://www.w3.org/2000/svg" xmlns:xlink="http://www.w3.org/1999/xlink">
	<desc>
			Created with Pixso.
	</desc>
	<defs>
		<clipPath id="clip27_931">
			<rect id="globe 1" rx="0.000000" width="54.000000" height="54.000000" transform="translate(17.500000 15.500000)" fill="white" fill-opacity="0"/>
		</clipPath>
	</defs>
	<path id="Ellipse 4" d="M18.49 25.08C6.49 37.57 -0.01 53.07 13.99 66.06C25.99 77.21 35.49 84.56 55.99 79.56C76.49 74.56 84.34 64.22 84.34 48.55C84.34 33.58 73.09 30.2 60.99 17.59C37.49 -6.9 28.25 14.92 18.49 25.08Z" fill="#92C4FF" fill-opacity="1.000000" fill-rule="evenodd"/>
	<path id="Ellipse 3" d="M78 33.5C78 64.5 67 70 56 75.56C45 81.12 25.5 88.5 17.5 75C9.72 61.87 18.47 57.57 15 46C10.5 31 16.67 12.24 31.5 14.5C54.5 18 78 8.32 78 33.5Z" fill="#907AFF" fill-opacity="1.000000" fill-rule="evenodd"/>
	<rect id="globe 1" rx="0.000000" width="54.000000" height="54.000000" transform="translate(17.500000 15.500000)" fill="#FFFFFF" fill-opacity="0"/>
	<g clip-path="url(#clip27_931)">
		<path id="Vector" d="M65.78 51.33C65.91 50.37 65.98 49.38 65.98 48.38C65.98 42.36 63.5 36.86 59.48 32.91C59.45 32.88 59.43 32.85 59.4 32.83C56.33 29.86 52.38 27.78 47.94 27.05C47.58 25.45 46.15 24.24 44.44 24.24C42.73 24.24 41.3 25.45 40.94 27.05C38.57 27.44 36.31 28.22 34.19 29.37C33.67 29.65 33.47 30.3 33.76 30.83C33.95 31.18 34.32 31.39 34.7 31.39C34.87 31.39 35.05 31.34 35.21 31.26C37.07 30.24 39.05 29.55 41.12 29.2C41.66 30.51 42.94 31.44 44.44 31.44C45.94 31.44 47.23 30.51 47.76 29.2C50.72 29.71 53.44 30.89 55.76 32.57L51.67 32.57C49.47 32.57 47.68 34.36 47.68 36.57C47.68 38.78 49.47 40.58 51.67 40.58C52.69 40.58 53.52 41.41 53.52 42.44C53.52 43.47 52.69 44.3 51.67 44.3L51.05 44.3C48.85 44.3 47.06 46.1 47.06 48.31C47.06 50.52 48.85 52.32 51.05 52.32L63.44 52.32C61.62 61.17 53.79 67.85 44.44 67.85C40.18 67.85 36.24 66.46 33.04 64.12L37.14 64.12C39.34 64.12 41.13 62.32 41.13 60.11C41.13 57.9 39.34 56.1 37.14 56.1C36.11 56.1 35.28 55.27 35.28 54.24C35.28 53.22 36.11 52.38 37.14 52.38L37.75 52.38C39.96 52.38 41.75 50.58 41.75 48.37C41.75 46.16 39.96 44.37 37.75 44.37L25.45 44.37C26.05 41.47 27.31 38.76 29.16 36.39C29.53 35.92 29.44 35.24 28.98 34.88C28.51 34.51 27.84 34.6 27.48 35.06C24.48 38.9 22.9 43.5 22.9 48.38C22.9 54.36 25.34 59.78 29.26 63.7C29.32 63.78 29.39 63.85 29.48 63.91C33.36 67.67 38.63 70 44.44 70C55.27 70 64.26 61.93 65.76 51.47C65.77 51.42 65.77 51.38 65.78 51.33ZM25.13 46.51L37.75 46.51C38.77 46.51 39.61 47.35 39.61 48.37C39.61 49.4 38.77 50.24 37.75 50.24L37.14 50.24C34.93 50.24 33.14 52.03 33.14 54.24C33.14 56.45 34.93 58.25 37.14 58.25C38.16 58.25 38.99 59.08 38.99 60.11C38.99 61.14 38.16 61.97 37.14 61.97L30.57 61.97C27.15 58.46 25.04 53.66 25.04 48.38C25.04 47.75 25.07 47.13 25.13 46.51ZM44.44 29.29C43.64 29.29 42.99 28.64 42.99 27.84C42.99 27.04 43.64 26.39 44.44 26.39C45.24 26.39 45.89 27.04 45.89 27.84C45.89 28.64 45.24 29.29 44.44 29.29ZM51.05 50.17C50.03 50.17 49.2 49.34 49.2 48.31C49.2 47.28 50.03 46.45 51.05 46.45L51.67 46.45C53.87 46.45 55.66 44.65 55.66 42.44C55.66 40.23 53.87 38.43 51.67 38.43C50.65 38.43 49.82 37.6 49.82 36.57C49.82 35.55 50.65 34.71 51.67 34.71L58.25 34.71C61.72 38.25 63.84 43.09 63.84 48.38C63.84 48.98 63.81 49.58 63.76 50.17L51.05 50.17Z" fill="#FFFFFF" fill-opacity="1.000000" fill-rule="nonzero"/>
		<path id="Vector" d="M31.03 33.93C31.23 33.93 31.44 33.87 31.62 33.75L31.64 33.74C32.13 33.4 32.26 32.74 31.93 32.25C31.6 31.76 30.93 31.63 30.45 31.96L30.43 31.97C29.94 32.3 29.81 32.97 30.14 33.46C30.34 33.77 30.68 33.93 31.03 33.93Z" fill="#FFFFFF" fill-opacity="1.000000" fill-rule="nonzero"/>
	</g>
</svg>
