<svg width="92.998047" height="90.011963" viewBox="0 0 92.998 90.012" fill="none" xmlns="http://www.w3.org/2000/svg" xmlns:xlink="http://www.w3.org/1999/xlink">
	<desc>
			Created with Pixso.
	</desc>
	<defs>
		<clipPath id="clip27_911">
			<rect id="Icon" rx="0.000000" width="41.000000" height="41.000000" transform="translate(24.500000 26.500000)" fill="white" fill-opacity="0"/>
		</clipPath>
	</defs>
	<path id="Ellipse 4" d="M18.49 25.08C6.49 37.57 -0.01 53.07 13.99 66.06C25.99 77.21 35.49 84.56 55.99 79.56C76.49 74.56 84.34 64.22 84.34 48.55C84.34 33.58 73.09 30.2 60.99 17.59C37.49 -6.9 28.25 14.92 18.49 25.08Z" fill="#92C4FF" fill-opacity="1.000000" fill-rule="evenodd"/>
	<path id="Ellipse 3" d="M78 33.5C78 64.5 67 70 56 75.56C45 81.12 25.5 88.5 17.5 75C9.72 61.87 18.47 57.57 15 46C10.5 31 16.67 12.24 31.5 14.5C54.5 18 78 8.32 78 33.5Z" fill="#907AFF" fill-opacity="1.000000" fill-rule="evenodd"/>
	<rect id="Icon" rx="0.000000" width="41.000000" height="41.000000" transform="translate(24.500000 26.500000)" fill="#FFFFFF" fill-opacity="0"/>
	<g clip-path="url(#clip27_911)">
		<path id="Vector" d="M55.8 31.95C56.25 31.95 56.62 31.59 56.62 31.13C56.62 30.68 56.25 30.31 55.8 30.31L55.8 30.31C55.34 30.31 54.98 30.68 54.98 31.13C54.98 31.59 55.35 31.95 55.8 31.95Z" fill="#FFFFFF" fill-opacity="1.000000" fill-rule="nonzero"/>
		<path id="Vector" d="M60.23 31.95C60.68 31.95 61.05 31.59 61.05 31.13C61.05 30.68 60.68 30.31 60.23 30.31L60.22 30.31C59.77 30.31 59.41 30.68 59.41 31.13C59.41 31.59 59.78 31.95 60.23 31.95Z" fill="#FFFFFF" fill-opacity="1.000000" fill-rule="nonzero"/>
		<path id="Vector" d="M51.37 31.95C51.83 31.95 52.19 31.59 52.19 31.13C52.19 30.68 51.83 30.31 51.37 30.31L51.37 30.31C50.92 30.31 50.55 30.68 50.55 31.13C50.55 31.59 50.92 31.95 51.37 31.95Z" fill="#FFFFFF" fill-opacity="1.000000" fill-rule="nonzero"/>
		<path id="Vector" d="M29.76 31.95L42.08 31.95C42.54 31.95 42.91 31.59 42.91 31.13C42.91 30.68 42.54 30.31 42.08 30.31L29.76 30.31C29.31 30.31 28.94 30.68 28.94 31.13C28.94 31.59 29.31 31.95 29.76 31.95Z" fill="#FFFFFF" fill-opacity="1.000000" fill-rule="nonzero"/>
		<path id="Vector" d="M63.36 26L26.63 26C25.18 26 24 27.18 24 28.63L24 59C24 60.45 25.18 61.63 26.63 61.63L33.19 61.63C33.72 62.43 34.32 63.17 35.01 63.86C37.68 66.53 41.22 68 45 68C48.77 68 52.31 66.53 54.98 63.86C55.67 63.17 56.28 62.42 56.79 61.63L63.36 61.63C64.81 61.63 66 60.45 66 59L66 28.63C66 27.18 64.81 26 63.36 26ZM26.63 27.64L63.36 27.64C63.91 27.64 64.35 28.08 64.35 28.63L64.35 34.63L25.64 34.63L25.64 28.63C25.64 28.08 26.08 27.64 26.63 27.64ZM63.36 59.99L57.72 59.99C60.24 54.74 59.33 48.24 54.98 43.89C52.77 41.68 49.97 40.3 46.88 39.88C43.88 39.48 40.79 40.06 38.16 41.52C37.77 41.73 37.62 42.23 37.84 42.63C38.06 43.03 38.56 43.17 38.96 42.95C43.79 40.28 49.91 41.14 53.82 45.05C58.68 49.92 58.68 57.83 53.82 62.7C51.46 65.06 48.33 66.35 45 66.35C41.66 66.35 38.53 65.06 36.17 62.7C32.26 58.79 31.39 52.68 34.07 47.84C34.29 47.44 34.14 46.94 33.75 46.72C33.35 46.5 32.85 46.65 32.63 47.04C31.18 49.67 30.6 52.77 31 55.76C31.2 57.25 31.63 58.67 32.26 59.99L26.63 59.99C26.08 59.99 25.64 59.55 25.64 59L25.64 36.28L64.35 36.28L64.35 59C64.35 59.55 63.91 59.99 63.36 59.99Z" fill="#FFFFFF" fill-opacity="1.000000" fill-rule="nonzero"/>
		<path id="Vector" d="M44.99 58.6C45.45 58.6 45.81 58.23 45.81 57.78L45.81 55.82C45.81 55.37 45.45 55 44.99 55C44.54 55 44.17 55.37 44.17 55.82L44.17 57.78C44.17 58.23 44.54 58.6 44.99 58.6Z" fill="#FFFFFF" fill-opacity="1.000000" fill-rule="nonzero"/>
		<path id="Vector" d="M44.99 63.28C48.87 63.28 52.02 60.12 52.02 56.25L52.02 53.11C52.02 52.05 51.26 51.16 50.25 50.97L50.25 48.82C50.25 46.4 48.28 44.43 45.86 44.43L44.13 44.43C41.71 44.43 39.73 46.4 39.73 48.82L39.73 50.97C38.73 51.17 37.97 52.05 37.97 53.11L37.97 56.25C37.97 60.12 41.12 63.28 44.99 63.28ZM41.38 48.82C41.38 47.3 42.61 46.07 44.13 46.07L45.86 46.07C47.38 46.07 48.61 47.3 48.61 48.82L48.61 50.93L41.38 50.93L41.38 48.82ZM39.61 53.11C39.61 52.82 39.85 52.57 40.15 52.57L49.84 52.57C50.14 52.57 50.38 52.82 50.38 53.11L50.38 56.25C50.38 59.22 47.96 61.64 44.99 61.64C42.02 61.64 39.61 59.22 39.61 56.25L39.61 53.11Z" fill="#FFFFFF" fill-opacity="1.000000" fill-rule="nonzero"/>
		<path id="Vector" d="M35.01 43.89C34.69 44.21 34.69 44.73 35.01 45.05C35.17 45.21 35.38 45.29 35.59 45.29C35.8 45.29 36.01 45.21 36.17 45.05L36.17 45.05C36.49 44.73 36.49 44.21 36.17 43.89C35.85 43.57 35.33 43.57 35.01 43.89Z" fill="#FFFFFF" fill-opacity="1.000000" fill-rule="nonzero"/>
	</g>
</svg>
