<svg width="92.998047" height="90.011963" viewBox="0 0 92.998 90.012" fill="none" xmlns="http://www.w3.org/2000/svg" xmlns:xlink="http://www.w3.org/1999/xlink">
	<desc>
			Created with Pixso.
	</desc>
	<defs>
		<clipPath id="clip27_972">
			<rect id="rocket 1" rx="0.000000" width="43.000000" height="43.000000" transform="translate(22.500000 26.500000)" fill="white" fill-opacity="0"/>
		</clipPath>
		<clipPath id="clip27_975">
			<rect id="speedometer 1" rx="0.000000" width="45.000000" height="45.000000" transform="translate(22.500000 23.500000)" fill="white" fill-opacity="0"/>
		</clipPath>
	</defs>
	<path id="Ellipse 4" d="M18.49 25.08C6.49 37.57 -0.01 53.07 13.99 66.06C25.99 77.21 35.49 84.56 55.99 79.56C76.49 74.56 84.34 64.22 84.34 48.55C84.34 33.58 73.09 30.2 60.99 17.59C37.49 -6.9 28.25 14.92 18.49 25.08Z" fill="#92C4FF" fill-opacity="1.000000" fill-rule="evenodd"/>
	<path id="Ellipse 3" d="M78 33.5C78 64.5 67 70 56 75.56C45 81.12 25.5 88.5 17.5 75C9.72 61.87 18.47 57.57 15 46C10.5 31 16.67 12.24 31.5 14.5C54.5 18 78 8.32 78 33.5Z" fill="#907AFF" fill-opacity="1.000000" fill-rule="evenodd"/>
	<rect id="speedometer 1" rx="0.000000" width="45.000000" height="45.000000" transform="translate(22.500000 23.500000)" fill="#FFFFFF" fill-opacity="0"/>
	<g clip-path="url(#clip27_975)">
		<path id="Vector" d="M43.65 28.39C38.46 28.68 33.59 30.7 29.71 34.16L35.47 39.91C36.73 39.46 38.1 39.22 39.51 39.22C40.97 39.22 42.36 39.47 43.65 39.94L43.65 28.39Z" fill="#FFFFFF" fill-opacity="1.000000" fill-rule="nonzero"/>
		<path id="Vector" d="M48.88 43.65L59.76 33.71C55.97 30.53 51.31 28.67 46.34 28.39L46.34 41.33C47.29 41.98 48.15 42.76 48.88 43.65Z" fill="#FFFFFF" fill-opacity="1.000000" fill-rule="nonzero"/>
		<path id="Vector" d="M22 51.35L22 52.69L27.39 52.69L27.39 51.35C27.39 47.09 29.59 43.34 32.92 41.17L27.81 36.06C24.05 40.28 22 45.65 22 51.35Z" fill="#FFFFFF" fill-opacity="1.000000" fill-rule="nonzero"/>
		<path id="Vector" d="M60.85 52.69L68 52.69L68 51.35C68 49.39 67.75 47.46 67.28 45.61L60.85 52.69Z" fill="#FFFFFF" fill-opacity="1.000000" fill-rule="nonzero"/>
		<path id="Vector" d="M44.99 52.74C43.55 52.74 42.2 53.3 41.18 54.32C39.08 56.42 39.08 59.84 41.18 61.94C42.2 62.96 43.55 63.52 44.99 63.52C46.43 63.52 47.79 62.96 48.81 61.94C50.91 59.84 50.91 56.42 48.81 54.32C47.79 53.3 46.43 52.74 44.99 52.74Z" fill="#FFFFFF" fill-opacity="1.000000" fill-rule="nonzero"/>
		<path id="Vector" d="M62.26 35.08L45.82 50.08C47.67 50.27 49.38 51.08 50.71 52.41C52.08 53.77 52.85 55.51 53.03 57.29L68 40.82L68 35.08L62.26 35.08Z" fill="#FFFFFF" fill-opacity="1.000000" fill-rule="nonzero"/>
	</g>
</svg>
