<svg width="92.998047" height="90.011963" viewBox="0 0 92.998 90.012" fill="none" xmlns="http://www.w3.org/2000/svg" xmlns:xlink="http://www.w3.org/1999/xlink">
	<desc>
			Created with Pixso.
	</desc>
	<defs>
		<clipPath id="clip27_945">
			<rect id="Icon" rx="0.000000" width="41.000000" height="41.000000" transform="translate(24.500000 26.500000)" fill="white" fill-opacity="0"/>
		</clipPath>
		<clipPath id="clip27_956">
			<rect id="photo 1" rx="0.000000" width="43.000000" height="43.000000" transform="translate(24.500000 24.500000)" fill="white" fill-opacity="0"/>
		</clipPath>
	</defs>
	<path id="Ellipse 4" d="M18.49 25.08C6.49 37.57 -0.01 53.07 13.99 66.06C25.99 77.21 35.49 84.56 55.99 79.56C76.49 74.56 84.34 64.22 84.34 48.55C84.34 33.58 73.09 30.2 60.99 17.59C37.49 -6.9 28.25 14.92 18.49 25.08Z" fill="#92C4FF" fill-opacity="1.000000" fill-rule="evenodd"/>
	<path id="Ellipse 3" d="M78 33.5C78 64.5 67 70 56 75.56C45 81.12 25.5 88.5 17.5 75C9.72 61.87 18.47 57.57 15 46C10.5 31 16.67 12.24 31.5 14.5C54.5 18 78 8.32 78 33.5Z" fill="#907AFF" fill-opacity="1.000000" fill-rule="evenodd"/>
	<rect id="photo 1" rx="0.000000" width="43.000000" height="43.000000" transform="translate(24.500000 24.500000)" fill="#FFFFFF" fill-opacity="0"/>
	<g clip-path="url(#clip27_956)">
		<path id="Vector" d="M43.6 39.15C43.6 40.82 42.25 42.17 40.58 42.17C38.91 42.17 37.56 40.82 37.56 39.15C37.56 37.48 38.91 36.13 40.58 36.13C42.25 36.13 43.6 37.48 43.6 39.15Z" fill="#FFFFFF" fill-opacity="1.000000" fill-rule="evenodd"/>
		<path id="Vector" d="M65.39 50.28C63.96 48.93 62.16 48.05 60.19 47.8L60.19 32.43C60.19 30.8 59.51 29.33 58.46 28.24C57.37 27.14 55.9 26.51 54.27 26.51L29.91 26.51C28.28 26.51 26.81 27.19 25.72 28.24C24.62 29.33 24 30.8 24 32.43L24 51.79L24 53.59L24 57.5C24 59.14 24.67 60.61 25.72 61.7C26.81 62.79 28.28 63.42 29.91 63.42L53.47 63.42C55.02 64.68 56.95 65.48 59.09 65.48C61.57 65.48 63.8 64.47 65.39 62.87C66.99 61.28 68 59.05 68 56.58C68 54.1 66.99 51.87 65.39 50.28ZM26.22 32.43C26.22 31.43 26.64 30.5 27.31 29.87C27.98 29.2 28.91 28.78 29.91 28.78L54.27 28.78C55.27 28.78 56.2 29.2 56.87 29.87C57.54 30.54 57.96 31.47 57.96 32.48L57.96 45.58L51.75 39.36C51.33 38.94 50.61 38.9 50.15 39.36L40.79 48.77L34.45 42.38C34.03 41.96 33.32 41.92 32.85 42.38L26.22 49.1L26.22 32.43ZM29.87 61.28L29.87 61.19C28.87 61.19 27.94 60.77 27.27 60.1C26.64 59.43 26.22 58.51 26.22 57.5L26.22 53.59L26.22 52.29L33.65 44.82L39.99 51.16C40.41 51.58 41.12 51.58 41.59 51.16L50.95 41.75L57.08 47.93C56.95 47.97 56.83 48.01 56.7 48.05C56.53 48.09 56.37 48.14 56.16 48.22C55.99 48.26 55.82 48.35 55.65 48.39C55.53 48.43 55.44 48.47 55.32 48.56C55.15 48.64 55.02 48.68 54.9 48.77C54.69 48.89 54.48 49.02 54.27 49.14C54.14 49.23 54.06 49.27 53.93 49.35C53.85 49.4 53.8 49.44 53.72 49.48C53.34 49.73 53.01 50.03 52.71 50.36C51.12 51.96 50.11 54.18 50.11 56.66C50.11 57.29 50.19 57.88 50.32 58.51C50.36 58.67 50.4 58.8 50.45 58.97C50.57 59.39 50.7 59.81 50.87 60.23L50.87 60.27C51.03 60.61 51.2 60.98 51.41 61.28L29.87 61.28ZM63.75 61.28C62.54 62.5 60.9 63.21 59.05 63.21C57.29 63.21 55.65 62.5 54.48 61.36C54.31 61.19 54.14 60.98 53.97 60.82C53.85 60.69 53.72 60.52 53.59 60.4C53.43 60.19 53.3 59.93 53.17 59.68C53.09 59.51 53.01 59.39 52.92 59.22C52.84 59.01 52.75 58.76 52.71 58.51C52.67 58.34 52.59 58.13 52.54 57.96C52.46 57.54 52.42 57.08 52.42 56.62C52.42 54.77 53.17 53.13 54.35 51.91C55.53 50.7 57.21 49.98 59.05 49.98C60.9 49.98 62.54 50.74 63.75 51.91C64.97 53.13 65.69 54.77 65.69 56.62C65.69 58.42 64.93 60.06 63.75 61.28Z" fill="#FFFFFF" fill-opacity="1.000000" fill-rule="nonzero"/>
		<path id="Vector" d="M59.85 52.08C59.77 52 59.64 51.91 59.47 51.83C59.35 51.79 59.22 51.75 59.09 51.75C59.05 51.75 59.05 51.75 59.05 51.75C59.01 51.75 59.01 51.75 59.01 51.75C58.88 51.75 58.76 51.79 58.63 51.83C58.51 51.87 58.38 51.96 58.25 52.08L55.65 54.69C55.23 55.11 55.23 55.82 55.65 56.28C56.07 56.7 56.79 56.7 57.25 56.28L57.92 55.61L57.92 60.23C57.92 60.86 58.42 61.36 59.05 61.36C59.68 61.36 60.19 60.86 60.19 60.23L60.19 55.61L60.86 56.28C61.28 56.7 61.99 56.7 62.45 56.28C62.87 55.86 62.87 55.15 62.45 54.69L59.85 52.08Z" fill="#FFFFFF" fill-opacity="1.000000" fill-rule="nonzero"/>
	</g>
</svg>
